<mxfile host="app.diagrams.net" modified="2023-08-22T01:46:50.675Z" agent="Mozilla/5.0 (Windows NT 10.0; Win64; x64) AppleWebKit/537.36 (KHTML, like Gecko) Chrome/116.0.0.0 Safari/537.36" etag="Twly9G9nJ63SJJWPSu_b" version="21.6.8" type="github" pages="3">
  <diagram id="C5RBs43oDa-KdzZeNtuy" name="SC-SP">
    <mxGraphModel dx="2800" dy="1290" grid="1" gridSize="10" guides="1" tooltips="1" connect="1" arrows="1" fold="1" page="1" pageScale="1" pageWidth="827" pageHeight="1169" math="0" shadow="0">
      <root>
        <mxCell id="WIyWlLk6GJQsqaUBKTNV-0" />
        <mxCell id="WIyWlLk6GJQsqaUBKTNV-1" parent="WIyWlLk6GJQsqaUBKTNV-0" />
        <mxCell id="jJFf-ijoVKE5jS3oAcCh-0" value="Core" style="shape=umlFrame;whiteSpace=wrap;html=1;pointerEvents=0;" vertex="1" parent="WIyWlLk6GJQsqaUBKTNV-1">
          <mxGeometry x="164" y="334" width="500" height="290" as="geometry" />
        </mxCell>
        <mxCell id="jJFf-ijoVKE5jS3oAcCh-1" value="ALU" style="html=1;whiteSpace=wrap;" vertex="1" parent="WIyWlLk6GJQsqaUBKTNV-1">
          <mxGeometry x="424" y="384" width="100" height="100" as="geometry" />
        </mxCell>
        <mxCell id="jJFf-ijoVKE5jS3oAcCh-2" value="Decoder" style="html=1;whiteSpace=wrap;" vertex="1" parent="WIyWlLk6GJQsqaUBKTNV-1">
          <mxGeometry x="304" y="384" width="100" height="100" as="geometry" />
        </mxCell>
        <mxCell id="jJFf-ijoVKE5jS3oAcCh-4" value="Memory" style="html=1;whiteSpace=wrap;" vertex="1" parent="WIyWlLk6GJQsqaUBKTNV-1">
          <mxGeometry x="184" y="504" width="460" height="100" as="geometry" />
        </mxCell>
        <mxCell id="jJFf-ijoVKE5jS3oAcCh-5" value="Register" style="html=1;whiteSpace=wrap;" vertex="1" parent="WIyWlLk6GJQsqaUBKTNV-1">
          <mxGeometry x="544" y="384" width="100" height="100" as="geometry" />
        </mxCell>
        <mxCell id="jJFf-ijoVKE5jS3oAcCh-11" style="edgeStyle=orthogonalEdgeStyle;rounded=0;orthogonalLoop=1;jettySize=auto;html=1;exitX=0.5;exitY=0;exitDx=0;exitDy=0;entryX=0.472;entryY=1.003;entryDx=0;entryDy=0;entryPerimeter=0;" edge="1" parent="WIyWlLk6GJQsqaUBKTNV-1" source="jJFf-ijoVKE5jS3oAcCh-6" target="jJFf-ijoVKE5jS3oAcCh-0">
          <mxGeometry relative="1" as="geometry" />
        </mxCell>
        <mxCell id="jJFf-ijoVKE5jS3oAcCh-6" value="Syscall" style="html=1;whiteSpace=wrap;" vertex="1" parent="WIyWlLk6GJQsqaUBKTNV-1">
          <mxGeometry x="524" y="734" width="100" height="100" as="geometry" />
        </mxCell>
        <mxCell id="jJFf-ijoVKE5jS3oAcCh-9" style="edgeStyle=orthogonalEdgeStyle;rounded=0;orthogonalLoop=1;jettySize=auto;html=1;exitX=0.5;exitY=0;exitDx=0;exitDy=0;entryX=0.472;entryY=1.005;entryDx=0;entryDy=0;entryPerimeter=0;" edge="1" parent="WIyWlLk6GJQsqaUBKTNV-1" source="jJFf-ijoVKE5jS3oAcCh-7" target="jJFf-ijoVKE5jS3oAcCh-0">
          <mxGeometry relative="1" as="geometry" />
        </mxCell>
        <mxCell id="jJFf-ijoVKE5jS3oAcCh-7" value="Tracer" style="html=1;whiteSpace=wrap;" vertex="1" parent="WIyWlLk6GJQsqaUBKTNV-1">
          <mxGeometry x="204" y="734" width="100" height="100" as="geometry" />
        </mxCell>
        <mxCell id="jJFf-ijoVKE5jS3oAcCh-8" value="Fetch Unit" style="html=1;whiteSpace=wrap;" vertex="1" parent="WIyWlLk6GJQsqaUBKTNV-1">
          <mxGeometry x="184" y="384" width="100" height="100" as="geometry" />
        </mxCell>
      </root>
    </mxGraphModel>
  </diagram>
  <diagram id="JohSVY40dBYb_aQey5no" name="SC-MP">
    <mxGraphModel dx="4027" dy="1474" grid="1" gridSize="10" guides="1" tooltips="1" connect="1" arrows="1" fold="1" page="1" pageScale="1" pageWidth="827" pageHeight="1169" math="0" shadow="0">
      <root>
        <mxCell id="0" />
        <mxCell id="1" parent="0" />
        <mxCell id="Cgh-DoVsadlqt4u21xrh-1" value="State" style="html=1;whiteSpace=wrap;" vertex="1" parent="1">
          <mxGeometry x="-650" y="338" width="130" height="65" as="geometry" />
        </mxCell>
        <mxCell id="Cgh-DoVsadlqt4u21xrh-2" value="Register File" style="html=1;whiteSpace=wrap;" vertex="1" parent="1">
          <mxGeometry x="400" y="486" width="110" height="110" as="geometry" />
        </mxCell>
        <mxCell id="Cgh-DoVsadlqt4u21xrh-3" value="ALU" style="html=1;whiteSpace=wrap;" vertex="1" parent="1">
          <mxGeometry x="560" y="486" width="110" height="110" as="geometry" />
        </mxCell>
        <mxCell id="Cgh-DoVsadlqt4u21xrh-4" value="Decoder" style="html=1;whiteSpace=wrap;" vertex="1" parent="1">
          <mxGeometry x="560" y="346" width="110" height="110" as="geometry" />
        </mxCell>
        <mxCell id="Cgh-DoVsadlqt4u21xrh-6" value="State" style="html=1;whiteSpace=wrap;" vertex="1" parent="1">
          <mxGeometry x="-477" y="338" width="130" height="65" as="geometry" />
        </mxCell>
        <mxCell id="Cgh-DoVsadlqt4u21xrh-7" value="State" style="html=1;whiteSpace=wrap;" vertex="1" parent="1">
          <mxGeometry x="-310" y="338" width="130" height="65" as="geometry" />
        </mxCell>
        <mxCell id="Cgh-DoVsadlqt4u21xrh-8" value="CPU States" style="shape=umlFrame;whiteSpace=wrap;html=1;pointerEvents=0;width=90;height=30;" vertex="1" parent="1">
          <mxGeometry x="-680" y="288" width="720" height="140" as="geometry" />
        </mxCell>
        <mxCell id="Cgh-DoVsadlqt4u21xrh-9" value="State" style="html=1;whiteSpace=wrap;" vertex="1" parent="1">
          <mxGeometry x="-140" y="338" width="130" height="65" as="geometry" />
        </mxCell>
        <mxCell id="Cgh-DoVsadlqt4u21xrh-10" value="Processes" style="shape=umlFrame;whiteSpace=wrap;html=1;pointerEvents=0;width=90;height=30;" vertex="1" parent="1">
          <mxGeometry x="-680" y="448" width="720" height="280" as="geometry" />
        </mxCell>
        <mxCell id="Cgh-DoVsadlqt4u21xrh-11" style="edgeStyle=orthogonalEdgeStyle;rounded=0;orthogonalLoop=1;jettySize=auto;html=1;exitX=0.5;exitY=0;exitDx=0;exitDy=0;entryX=0.5;entryY=1;entryDx=0;entryDy=0;dashed=1;" edge="1" parent="1" source="Cgh-DoVsadlqt4u21xrh-12" target="Cgh-DoVsadlqt4u21xrh-1">
          <mxGeometry relative="1" as="geometry" />
        </mxCell>
        <mxCell id="Cgh-DoVsadlqt4u21xrh-12" value="Process" style="html=1;whiteSpace=wrap;" vertex="1" parent="1">
          <mxGeometry x="-650" y="500.5" width="130" height="67.5" as="geometry" />
        </mxCell>
        <mxCell id="Cgh-DoVsadlqt4u21xrh-13" style="edgeStyle=orthogonalEdgeStyle;rounded=0;orthogonalLoop=1;jettySize=auto;html=1;exitX=0.5;exitY=0;exitDx=0;exitDy=0;entryX=0.5;entryY=1;entryDx=0;entryDy=0;dashed=1;" edge="1" parent="1" source="Cgh-DoVsadlqt4u21xrh-14" target="Cgh-DoVsadlqt4u21xrh-6">
          <mxGeometry relative="1" as="geometry" />
        </mxCell>
        <mxCell id="Cgh-DoVsadlqt4u21xrh-14" value="Process" style="html=1;whiteSpace=wrap;" vertex="1" parent="1">
          <mxGeometry x="-477" y="500.5" width="130" height="65" as="geometry" />
        </mxCell>
        <mxCell id="Cgh-DoVsadlqt4u21xrh-15" style="edgeStyle=orthogonalEdgeStyle;rounded=0;orthogonalLoop=1;jettySize=auto;html=1;exitX=0.5;exitY=0;exitDx=0;exitDy=0;entryX=0.5;entryY=1;entryDx=0;entryDy=0;dashed=1;" edge="1" parent="1" source="Cgh-DoVsadlqt4u21xrh-16" target="Cgh-DoVsadlqt4u21xrh-7">
          <mxGeometry relative="1" as="geometry" />
        </mxCell>
        <mxCell id="Cgh-DoVsadlqt4u21xrh-16" value="Process" style="html=1;whiteSpace=wrap;" vertex="1" parent="1">
          <mxGeometry x="-310" y="500.5" width="130" height="65" as="geometry" />
        </mxCell>
        <mxCell id="Cgh-DoVsadlqt4u21xrh-17" style="edgeStyle=orthogonalEdgeStyle;rounded=0;orthogonalLoop=1;jettySize=auto;html=1;exitX=0.5;exitY=0;exitDx=0;exitDy=0;entryX=0.5;entryY=1;entryDx=0;entryDy=0;dashed=1;" edge="1" parent="1" source="Cgh-DoVsadlqt4u21xrh-18" target="Cgh-DoVsadlqt4u21xrh-9">
          <mxGeometry relative="1" as="geometry" />
        </mxCell>
        <mxCell id="Cgh-DoVsadlqt4u21xrh-18" value="Process" style="html=1;whiteSpace=wrap;" vertex="1" parent="1">
          <mxGeometry x="-140" y="500.5" width="130" height="65" as="geometry" />
        </mxCell>
        <mxCell id="Cgh-DoVsadlqt4u21xrh-19" value="Core" style="shape=umlFrame;whiteSpace=wrap;html=1;pointerEvents=0;" vertex="1" parent="1">
          <mxGeometry x="350" y="306" width="370" height="400" as="geometry" />
        </mxCell>
        <mxCell id="Cgh-DoVsadlqt4u21xrh-20" value="Fetch Unit" style="html=1;whiteSpace=wrap;" vertex="1" parent="1">
          <mxGeometry x="400" y="346" width="110" height="110" as="geometry" />
        </mxCell>
        <mxCell id="raejYUZMowQgH1t5W9rL-7" value="" style="edgeStyle=orthogonalEdgeStyle;rounded=0;orthogonalLoop=1;jettySize=auto;html=1;exitX=1;exitY=0.303;exitDx=0;exitDy=0;exitPerimeter=0;entryX=-0.003;entryY=0.345;entryDx=0;entryDy=0;entryPerimeter=0;" edge="1" parent="1" source="Cgh-DoVsadlqt4u21xrh-23" target="Cgh-DoVsadlqt4u21xrh-19">
          <mxGeometry relative="1" as="geometry">
            <mxPoint x="560" y="584.5" as="targetPoint" />
          </mxGeometry>
        </mxCell>
        <mxCell id="Cgh-DoVsadlqt4u21xrh-23" value="Kernel" style="shape=umlFrame;whiteSpace=wrap;html=1;pointerEvents=0;" vertex="1" parent="1">
          <mxGeometry x="-740" y="228" width="840" height="713" as="geometry" />
        </mxCell>
        <mxCell id="MsrtV-jmUlhMRd1GNKr2-9" value="" style="edgeStyle=orthogonalEdgeStyle;rounded=0;orthogonalLoop=1;jettySize=auto;html=1;entryX=0.501;entryY=1;entryDx=0;entryDy=0;entryPerimeter=0;" edge="1" parent="1" source="Cgh-DoVsadlqt4u21xrh-24" target="Cgh-DoVsadlqt4u21xrh-19">
          <mxGeometry relative="1" as="geometry" />
        </mxCell>
        <mxCell id="raejYUZMowQgH1t5W9rL-9" value="" style="edgeStyle=orthogonalEdgeStyle;rounded=0;orthogonalLoop=1;jettySize=auto;html=1;entryX=0.999;entryY=0.893;entryDx=0;entryDy=0;entryPerimeter=0;" edge="1" parent="1" source="Cgh-DoVsadlqt4u21xrh-24" target="Cgh-DoVsadlqt4u21xrh-23">
          <mxGeometry relative="1" as="geometry">
            <mxPoint x="245" y="866" as="targetPoint" />
          </mxGeometry>
        </mxCell>
        <mxCell id="Cgh-DoVsadlqt4u21xrh-24" value="Syscalls" style="shape=umlFrame;whiteSpace=wrap;html=1;pointerEvents=0;" vertex="1" parent="1">
          <mxGeometry x="350" y="791" width="130" height="150" as="geometry" />
        </mxCell>
        <mxCell id="Cgh-DoVsadlqt4u21xrh-25" value="Yield" style="html=1;whiteSpace=wrap;" vertex="1" parent="1">
          <mxGeometry x="370" y="831" width="90" height="90" as="geometry" />
        </mxCell>
        <mxCell id="Cgh-DoVsadlqt4u21xrh-26" value="Memory" style="html=1;whiteSpace=wrap;" vertex="1" parent="1">
          <mxGeometry x="-650" y="568" width="130" height="127.5" as="geometry" />
        </mxCell>
        <mxCell id="Cgh-DoVsadlqt4u21xrh-27" value="Memory" style="html=1;whiteSpace=wrap;" vertex="1" parent="1">
          <mxGeometry x="-477" y="565.5" width="130" height="127.5" as="geometry" />
        </mxCell>
        <mxCell id="Cgh-DoVsadlqt4u21xrh-28" value="Memory" style="html=1;whiteSpace=wrap;" vertex="1" parent="1">
          <mxGeometry x="-310" y="565.5" width="130" height="127.5" as="geometry" />
        </mxCell>
        <mxCell id="Cgh-DoVsadlqt4u21xrh-29" value="Memory" style="html=1;whiteSpace=wrap;" vertex="1" parent="1">
          <mxGeometry x="-140" y="565.5" width="130" height="127.5" as="geometry" />
        </mxCell>
        <mxCell id="e0fdxu0Z3Wt15DGcbfik-8" value="Current Process" style="html=1;whiteSpace=wrap;" vertex="1" parent="1">
          <mxGeometry x="400" y="626" width="270" height="50" as="geometry" />
        </mxCell>
        <mxCell id="MsrtV-jmUlhMRd1GNKr2-10" style="edgeStyle=orthogonalEdgeStyle;rounded=0;orthogonalLoop=1;jettySize=auto;html=1;exitX=0.5;exitY=0;exitDx=0;exitDy=0;entryX=0.501;entryY=0.999;entryDx=0;entryDy=0;entryPerimeter=0;" edge="1" parent="1" source="MsrtV-jmUlhMRd1GNKr2-4" target="Cgh-DoVsadlqt4u21xrh-19">
          <mxGeometry relative="1" as="geometry">
            <Array as="points">
              <mxPoint x="690" y="746" />
              <mxPoint x="535" y="746" />
            </Array>
          </mxGeometry>
        </mxCell>
        <mxCell id="MsrtV-jmUlhMRd1GNKr2-4" value="Tracer" style="html=1;whiteSpace=wrap;" vertex="1" parent="1">
          <mxGeometry x="640" y="816" width="100" height="100" as="geometry" />
        </mxCell>
        <mxCell id="raejYUZMowQgH1t5W9rL-3" value="Sehcduler" style="html=1;whiteSpace=wrap;" vertex="1" parent="1">
          <mxGeometry x="-680" y="761" width="200" height="150" as="geometry" />
        </mxCell>
        <mxCell id="raejYUZMowQgH1t5W9rL-4" value="State Saver" style="html=1;whiteSpace=wrap;" vertex="1" parent="1">
          <mxGeometry x="-420" y="761" width="200" height="150" as="geometry" />
        </mxCell>
        <mxCell id="raejYUZMowQgH1t5W9rL-5" value="State Loader" style="html=1;whiteSpace=wrap;" vertex="1" parent="1">
          <mxGeometry x="-160" y="761" width="200" height="150" as="geometry" />
        </mxCell>
      </root>
    </mxGraphModel>
  </diagram>
  <diagram id="OSlTnp1Fj-KpdQ1Isk8S" name="MC-MP">
    <mxGraphModel dx="3627" dy="1290" grid="1" gridSize="10" guides="1" tooltips="1" connect="1" arrows="1" fold="1" page="1" pageScale="1" pageWidth="827" pageHeight="1169" math="0" shadow="0">
      <root>
        <mxCell id="0" />
        <mxCell id="1" parent="0" />
        <mxCell id="BfR6Zu-yq-YvX_CjWNUr-1" value="State" style="html=1;whiteSpace=wrap;" vertex="1" parent="1">
          <mxGeometry x="-441" y="270" width="130" height="65" as="geometry" />
        </mxCell>
        <mxCell id="BfR6Zu-yq-YvX_CjWNUr-2" value="Register File" style="html=1;whiteSpace=wrap;" vertex="1" parent="1">
          <mxGeometry x="979" y="396" width="110" height="110" as="geometry" />
        </mxCell>
        <mxCell id="BfR6Zu-yq-YvX_CjWNUr-3" value="ALU" style="html=1;whiteSpace=wrap;" vertex="1" parent="1">
          <mxGeometry x="1139" y="396" width="110" height="110" as="geometry" />
        </mxCell>
        <mxCell id="BfR6Zu-yq-YvX_CjWNUr-4" value="Decoder" style="html=1;whiteSpace=wrap;" vertex="1" parent="1">
          <mxGeometry x="1139" y="256" width="110" height="110" as="geometry" />
        </mxCell>
        <mxCell id="BfR6Zu-yq-YvX_CjWNUr-5" value="State" style="html=1;whiteSpace=wrap;" vertex="1" parent="1">
          <mxGeometry x="-268" y="270" width="130" height="65" as="geometry" />
        </mxCell>
        <mxCell id="BfR6Zu-yq-YvX_CjWNUr-6" value="State" style="html=1;whiteSpace=wrap;" vertex="1" parent="1">
          <mxGeometry x="-101" y="270" width="130" height="65" as="geometry" />
        </mxCell>
        <mxCell id="BfR6Zu-yq-YvX_CjWNUr-7" value="CPU States" style="shape=umlFrame;whiteSpace=wrap;html=1;pointerEvents=0;width=90;height=30;" vertex="1" parent="1">
          <mxGeometry x="-471" y="220" width="720" height="140" as="geometry" />
        </mxCell>
        <mxCell id="BfR6Zu-yq-YvX_CjWNUr-8" value="State" style="html=1;whiteSpace=wrap;" vertex="1" parent="1">
          <mxGeometry x="69" y="270" width="130" height="65" as="geometry" />
        </mxCell>
        <mxCell id="BfR6Zu-yq-YvX_CjWNUr-9" value="Processes" style="shape=umlFrame;whiteSpace=wrap;html=1;pointerEvents=0;width=90;height=30;" vertex="1" parent="1">
          <mxGeometry x="-471" y="380" width="720" height="280" as="geometry" />
        </mxCell>
        <mxCell id="BfR6Zu-yq-YvX_CjWNUr-10" style="edgeStyle=orthogonalEdgeStyle;rounded=0;orthogonalLoop=1;jettySize=auto;html=1;exitX=0.5;exitY=0;exitDx=0;exitDy=0;entryX=0.5;entryY=1;entryDx=0;entryDy=0;dashed=1;" edge="1" parent="1" source="BfR6Zu-yq-YvX_CjWNUr-11" target="BfR6Zu-yq-YvX_CjWNUr-1">
          <mxGeometry relative="1" as="geometry" />
        </mxCell>
        <mxCell id="BfR6Zu-yq-YvX_CjWNUr-11" value="Process" style="html=1;whiteSpace=wrap;" vertex="1" parent="1">
          <mxGeometry x="-441" y="432.5" width="130" height="67.5" as="geometry" />
        </mxCell>
        <mxCell id="BfR6Zu-yq-YvX_CjWNUr-12" style="edgeStyle=orthogonalEdgeStyle;rounded=0;orthogonalLoop=1;jettySize=auto;html=1;exitX=0.5;exitY=0;exitDx=0;exitDy=0;entryX=0.5;entryY=1;entryDx=0;entryDy=0;dashed=1;" edge="1" parent="1" source="BfR6Zu-yq-YvX_CjWNUr-13" target="BfR6Zu-yq-YvX_CjWNUr-5">
          <mxGeometry relative="1" as="geometry" />
        </mxCell>
        <mxCell id="BfR6Zu-yq-YvX_CjWNUr-13" value="Process" style="html=1;whiteSpace=wrap;" vertex="1" parent="1">
          <mxGeometry x="-268" y="432.5" width="130" height="65" as="geometry" />
        </mxCell>
        <mxCell id="BfR6Zu-yq-YvX_CjWNUr-14" style="edgeStyle=orthogonalEdgeStyle;rounded=0;orthogonalLoop=1;jettySize=auto;html=1;exitX=0.5;exitY=0;exitDx=0;exitDy=0;entryX=0.5;entryY=1;entryDx=0;entryDy=0;dashed=1;" edge="1" parent="1" source="BfR6Zu-yq-YvX_CjWNUr-15" target="BfR6Zu-yq-YvX_CjWNUr-6">
          <mxGeometry relative="1" as="geometry" />
        </mxCell>
        <mxCell id="BfR6Zu-yq-YvX_CjWNUr-15" value="Process" style="html=1;whiteSpace=wrap;" vertex="1" parent="1">
          <mxGeometry x="-101" y="432.5" width="130" height="65" as="geometry" />
        </mxCell>
        <mxCell id="BfR6Zu-yq-YvX_CjWNUr-16" style="edgeStyle=orthogonalEdgeStyle;rounded=0;orthogonalLoop=1;jettySize=auto;html=1;exitX=0.5;exitY=0;exitDx=0;exitDy=0;entryX=0.5;entryY=1;entryDx=0;entryDy=0;dashed=1;" edge="1" parent="1" source="BfR6Zu-yq-YvX_CjWNUr-17" target="BfR6Zu-yq-YvX_CjWNUr-8">
          <mxGeometry relative="1" as="geometry" />
        </mxCell>
        <mxCell id="BfR6Zu-yq-YvX_CjWNUr-17" value="Process" style="html=1;whiteSpace=wrap;" vertex="1" parent="1">
          <mxGeometry x="69" y="432.5" width="130" height="65" as="geometry" />
        </mxCell>
        <mxCell id="BfR6Zu-yq-YvX_CjWNUr-18" value="Core" style="shape=umlFrame;whiteSpace=wrap;html=1;pointerEvents=0;" vertex="1" parent="1">
          <mxGeometry x="929" y="216" width="370" height="400" as="geometry" />
        </mxCell>
        <mxCell id="BfR6Zu-yq-YvX_CjWNUr-19" value="Fetch Unit" style="html=1;whiteSpace=wrap;" vertex="1" parent="1">
          <mxGeometry x="979" y="256" width="110" height="110" as="geometry" />
        </mxCell>
        <mxCell id="rOfFbKU00IpNW2LFzWHO-2" value="" style="edgeStyle=orthogonalEdgeStyle;rounded=0;orthogonalLoop=1;jettySize=auto;html=1;exitX=1;exitY=0.283;exitDx=0;exitDy=0;exitPerimeter=0;entryX=-0.001;entryY=0.391;entryDx=0;entryDy=0;entryPerimeter=0;" edge="1" parent="1" source="BfR6Zu-yq-YvX_CjWNUr-21" target="BfR6Zu-yq-YvX_CjWNUr-36">
          <mxGeometry relative="1" as="geometry">
            <mxPoint x="769" y="516.5" as="targetPoint" />
          </mxGeometry>
        </mxCell>
        <mxCell id="BfR6Zu-yq-YvX_CjWNUr-21" value="Kernel" style="shape=umlFrame;whiteSpace=wrap;html=1;pointerEvents=0;" vertex="1" parent="1">
          <mxGeometry x="-531" y="160" width="840" height="713" as="geometry" />
        </mxCell>
        <mxCell id="BfR6Zu-yq-YvX_CjWNUr-56" value="" style="edgeStyle=orthogonalEdgeStyle;rounded=0;orthogonalLoop=1;jettySize=auto;html=1;entryX=0.719;entryY=1.01;entryDx=0;entryDy=0;entryPerimeter=0;" edge="1" parent="1" source="BfR6Zu-yq-YvX_CjWNUr-24" target="BfR6Zu-yq-YvX_CjWNUr-46">
          <mxGeometry relative="1" as="geometry">
            <mxPoint x="734" y="792" as="targetPoint" />
            <Array as="points">
              <mxPoint x="904" y="686" />
              <mxPoint x="775" y="686" />
            </Array>
          </mxGeometry>
        </mxCell>
        <mxCell id="BfR6Zu-yq-YvX_CjWNUr-59" value="" style="edgeStyle=orthogonalEdgeStyle;rounded=0;orthogonalLoop=1;jettySize=auto;html=1;entryX=0.486;entryY=1.001;entryDx=0;entryDy=0;entryPerimeter=0;" edge="1" parent="1" source="BfR6Zu-yq-YvX_CjWNUr-24" target="BfR6Zu-yq-YvX_CjWNUr-21">
          <mxGeometry relative="1" as="geometry">
            <mxPoint x="904" y="992" as="targetPoint" />
            <Array as="points">
              <mxPoint x="904" y="960" />
              <mxPoint x="-123" y="960" />
            </Array>
          </mxGeometry>
        </mxCell>
        <mxCell id="BfR6Zu-yq-YvX_CjWNUr-24" value="Syscalls" style="shape=umlFrame;whiteSpace=wrap;html=1;pointerEvents=0;" vertex="1" parent="1">
          <mxGeometry x="839" y="717" width="130" height="150" as="geometry" />
        </mxCell>
        <mxCell id="BfR6Zu-yq-YvX_CjWNUr-25" value="Yield" style="html=1;whiteSpace=wrap;" vertex="1" parent="1">
          <mxGeometry x="859" y="757.0000000000001" width="90" height="90" as="geometry" />
        </mxCell>
        <mxCell id="BfR6Zu-yq-YvX_CjWNUr-26" value="Memory" style="html=1;whiteSpace=wrap;" vertex="1" parent="1">
          <mxGeometry x="-441" y="500" width="130" height="127.5" as="geometry" />
        </mxCell>
        <mxCell id="BfR6Zu-yq-YvX_CjWNUr-27" value="Memory" style="html=1;whiteSpace=wrap;" vertex="1" parent="1">
          <mxGeometry x="-268" y="497.5" width="130" height="127.5" as="geometry" />
        </mxCell>
        <mxCell id="BfR6Zu-yq-YvX_CjWNUr-28" value="Memory" style="html=1;whiteSpace=wrap;" vertex="1" parent="1">
          <mxGeometry x="-101" y="497.5" width="130" height="127.5" as="geometry" />
        </mxCell>
        <mxCell id="BfR6Zu-yq-YvX_CjWNUr-29" value="Memory" style="html=1;whiteSpace=wrap;" vertex="1" parent="1">
          <mxGeometry x="69" y="497.5" width="130" height="127.5" as="geometry" />
        </mxCell>
        <mxCell id="BfR6Zu-yq-YvX_CjWNUr-30" value="Current Process" style="html=1;whiteSpace=wrap;" vertex="1" parent="1">
          <mxGeometry x="979" y="536" width="270" height="50" as="geometry" />
        </mxCell>
        <mxCell id="BfR6Zu-yq-YvX_CjWNUr-54" style="edgeStyle=orthogonalEdgeStyle;rounded=0;orthogonalLoop=1;jettySize=auto;html=1;exitX=0.5;exitY=0;exitDx=0;exitDy=0;entryX=0.728;entryY=0.999;entryDx=0;entryDy=0;entryPerimeter=0;" edge="1" parent="1" source="BfR6Zu-yq-YvX_CjWNUr-32" target="BfR6Zu-yq-YvX_CjWNUr-18">
          <mxGeometry relative="1" as="geometry" />
        </mxCell>
        <mxCell id="BfR6Zu-yq-YvX_CjWNUr-32" value="Tracer" style="html=1;whiteSpace=wrap;" vertex="1" parent="1">
          <mxGeometry x="1149" y="714.0000000000001" width="100" height="100" as="geometry" />
        </mxCell>
        <mxCell id="BfR6Zu-yq-YvX_CjWNUr-33" value="Sehcduler" style="html=1;whiteSpace=wrap;" vertex="1" parent="1">
          <mxGeometry x="-471" y="693" width="200" height="150" as="geometry" />
        </mxCell>
        <mxCell id="BfR6Zu-yq-YvX_CjWNUr-34" value="State Saver" style="html=1;whiteSpace=wrap;" vertex="1" parent="1">
          <mxGeometry x="-211" y="693" width="200" height="150" as="geometry" />
        </mxCell>
        <mxCell id="BfR6Zu-yq-YvX_CjWNUr-35" value="State Loader" style="html=1;whiteSpace=wrap;" vertex="1" parent="1">
          <mxGeometry x="49" y="693" width="200" height="150" as="geometry" />
        </mxCell>
        <mxCell id="BfR6Zu-yq-YvX_CjWNUr-36" value="Core Cluster" style="shape=umlFrame;whiteSpace=wrap;html=1;pointerEvents=0;width=80;height=30;" vertex="1" parent="1">
          <mxGeometry x="449" y="166" width="910" height="500" as="geometry" />
        </mxCell>
        <mxCell id="BfR6Zu-yq-YvX_CjWNUr-43" value="Register File" style="html=1;whiteSpace=wrap;" vertex="1" parent="1">
          <mxGeometry x="559" y="396" width="110" height="110" as="geometry" />
        </mxCell>
        <mxCell id="BfR6Zu-yq-YvX_CjWNUr-44" value="ALU" style="html=1;whiteSpace=wrap;" vertex="1" parent="1">
          <mxGeometry x="719" y="396" width="110" height="110" as="geometry" />
        </mxCell>
        <mxCell id="BfR6Zu-yq-YvX_CjWNUr-45" value="Decoder" style="html=1;whiteSpace=wrap;" vertex="1" parent="1">
          <mxGeometry x="719" y="256" width="110" height="110" as="geometry" />
        </mxCell>
        <mxCell id="BfR6Zu-yq-YvX_CjWNUr-46" value="Core" style="shape=umlFrame;whiteSpace=wrap;html=1;pointerEvents=0;" vertex="1" parent="1">
          <mxGeometry x="509" y="216" width="370" height="400" as="geometry" />
        </mxCell>
        <mxCell id="BfR6Zu-yq-YvX_CjWNUr-47" value="Fetch Unit" style="html=1;whiteSpace=wrap;" vertex="1" parent="1">
          <mxGeometry x="559" y="256" width="110" height="110" as="geometry" />
        </mxCell>
        <mxCell id="BfR6Zu-yq-YvX_CjWNUr-48" value="Current Process" style="html=1;whiteSpace=wrap;" vertex="1" parent="1">
          <mxGeometry x="559" y="536" width="270" height="50" as="geometry" />
        </mxCell>
        <mxCell id="BfR6Zu-yq-YvX_CjWNUr-53" value="" style="edgeStyle=orthogonalEdgeStyle;rounded=0;orthogonalLoop=1;jettySize=auto;html=1;" edge="1" parent="1" source="BfR6Zu-yq-YvX_CjWNUr-52">
          <mxGeometry relative="1" as="geometry">
            <mxPoint x="629" y="616" as="targetPoint" />
          </mxGeometry>
        </mxCell>
        <mxCell id="BfR6Zu-yq-YvX_CjWNUr-52" value="Tracer" style="html=1;whiteSpace=wrap;" vertex="1" parent="1">
          <mxGeometry x="579" y="717.0000000000001" width="100" height="100" as="geometry" />
        </mxCell>
        <mxCell id="BfR6Zu-yq-YvX_CjWNUr-57" value="" style="edgeStyle=orthogonalEdgeStyle;rounded=0;orthogonalLoop=1;jettySize=auto;html=1;entryX=0.297;entryY=1.008;entryDx=0;entryDy=0;entryPerimeter=0;" edge="1" parent="1" target="BfR6Zu-yq-YvX_CjWNUr-18">
          <mxGeometry relative="1" as="geometry">
            <mxPoint x="905" y="717" as="sourcePoint" />
            <mxPoint x="1029" y="736" as="targetPoint" />
            <Array as="points">
              <mxPoint x="905" y="686" />
              <mxPoint x="1039" y="686" />
            </Array>
          </mxGeometry>
        </mxCell>
      </root>
    </mxGraphModel>
  </diagram>
</mxfile>
